<?xml version="1.0" encoding="utf-8"?>
<!-- Generator: Adobe Illustrator 22.1.0, SVG Export Plug-In . SVG Version: 6.00 Build 0)  -->
<svg version="1.1" id="Layer_1" xmlns="http://www.w3.org/2000/svg" xmlns:xlink="http://www.w3.org/1999/xlink" x="0px" y="0px"
	 viewBox="40 185 280 198" style="enable-background:new 0 0 842 595;" xml:space="preserve">
<style type="text/css">
	.st0{fill-rule:evenodd;clip-rule:evenodd;fill:#40B9C2;}
	.st1{fill-rule:evenodd;clip-rule:evenodd;fill:#8ED4DC;}
	.st2{fill-rule:evenodd;clip-rule:evenodd;fill:#63C9D7;}
</style>
<g>
	<polygon class="st0" points="175.9,343.6 146.7,326.7 117.4,309.9 117.4,324.8 146.7,341.7 175.9,358.6 205.2,341.7 234.5,324.8
		234.5,309.9 205.2,326.7 	"/>
	<path class="st1" d="M202.4,250.4c-8.4-14.6-27.2-19.6-41.8-11.2l-13.9,8l-29.3,16.9l29.3,16.9l29.3,16.9l29.3-16.9l29.3-16.9
		l-0.7-0.4h-27.3C206.2,259.2,204.9,254.6,202.4,250.4z"/>
	<polygon class="st2" points="175.9,312.5 146.7,295.7 117.4,278.8 117.4,293.7 146.7,310.6 175.9,327.5 205.2,310.6 234.5,293.7
		234.5,278.8 205.2,295.7 	"/>
</g>
</svg>
